<svg xmlns="http://www.w3.org/2000/svg" width="1800" height="1100" viewBox="0 0 1800 1100">
  <rect width="1800" height="1100" fill="#10233f"/>
  <rect x="930" y="160" width="590" height="410" rx="18" fill="#f8fbff"/>
  <rect x="970" y="215" width="360" height="18" rx="9" fill="#246bfe"/>
  <rect x="970" y="270" width="470" height="16" rx="8" fill="#d8dee8"/>
  <rect x="970" y="315" width="430" height="16" rx="8" fill="#d8dee8"/>
  <rect x="970" y="360" width="500" height="16" rx="8" fill="#d8dee8"/>
  <rect x="970" y="430" width="190" height="52" rx="8" fill="#00a79d"/>
  <rect x="1080" y="645" width="330" height="90" rx="16" fill="#203b62"/>
  <rect x="430" y="690" width="910" height="120" rx="22" fill="#2d4466"/>
  <rect x="640" y="780" width="540" height="42" fill="#172a45"/>
  <circle cx="1450" cy="760" r="86" fill="#00a79d" opacity=".72"/>
  <circle cx="1290" cy="175" r="54" fill="#246bfe" opacity=".62"/>
  <path d="M0 880 C260 760 530 940 810 820 C1040 720 1320 770 1800 650 L1800 1100 L0 1100 Z" fill="#0a1728" opacity=".72"/>
</svg>
